<svg xmlns="http://www.w3.org/2000/svg" width="1060" height="604" viewBox="0 0 1060 604"><defs><marker id="a" viewBox="0 0 10 10" refX="9" refY="5" markerWidth="8" markerHeight="8" orient="auto-start-reverse"><path d="M0,0 L10,5 L0,10 z" fill="#334155"/></marker></defs><style>text{font-family:DejaVu Sans,Arial,sans-serif;fill:#0f172a}.s{font-size:13px}.m{font-size:14px}.t{font-size:16px;font-weight:bold}.l{font-size:12px;fill:#475569}.ln{stroke:#334155;stroke-width:1.6;fill:none}</style><rect width="1060" height="604" fill="#ffffff"/>
<rect x="20" y="20" width="170" height="50" rx="8" fill="#eff6ff" stroke="#3b82f6" stroke-width="1.5"/><text x="105" y="51" class="t" text-anchor="middle">Right-click</text>
<path d="M190,45 L238,45" class="ln" marker-end="url(#a)"/>
<rect x="240" y="20" width="300" height="50" rx="8" fill="#fef9c3" stroke="#eab308" stroke-width="1.5"/><text x="390" y="42" class="t" text-anchor="middle">Detect the clicked part</text><text x="390" y="60" class="l" text-anchor="middle">match element against a rule table</text>
<text x="240" y="100" class="l">PART · MARKER IN THE PAGE</text><text x="640" y="100" class="l">MENU THE SCRIPT DRAWS</text>
<path d="M390,70 L390,82 L210,82 L210,509" class="ln"/>
<path d="M210,137 L238,137" class="ln" marker-end="url(#a)"/>
<rect x="240" y="112" width="340" height="50" rx="7" fill="#fff" stroke="#93c5fd"/><text x="254" y="133" class="t">Tree: test case</text><text x="254" y="152" class="l">testlink_node_type = testcase</text>
<path d="M580,137 L638,137" class="ln" marker-end="url(#a)"/>
<rect x="640" y="112" width="400" height="50" rx="7" fill="#f0fdf4" stroke="#22c55e"/><text x="656" y="142" class="m">Review test case · Revise · Create negative case</text>
<path d="M210,199 L238,199" class="ln" marker-end="url(#a)"/>
<rect x="240" y="174" width="340" height="50" rx="7" fill="#fff" stroke="#93c5fd"/><text x="254" y="195" class="t">Tree: test suite</text><text x="254" y="214" class="l">testlink_node_type = testsuite</text>
<path d="M580,199 L638,199" class="ln" marker-end="url(#a)"/>
<rect x="640" y="174" width="400" height="50" rx="7" fill="#f0fdf4" stroke="#22c55e"/><text x="656" y="204" class="m">Review suite · Find duplicates · Find gaps</text>
<path d="M210,261 L238,261" class="ln" marker-end="url(#a)"/>
<rect x="240" y="236" width="340" height="50" rx="7" fill="#fff" stroke="#93c5fd"/><text x="254" y="257" class="t">Test case name</text><text x="254" y="276" class="l">title of the test case view</text>
<path d="M580,261 L638,261" class="ln" marker-end="url(#a)"/>
<rect x="640" y="236" width="400" height="50" rx="7" fill="#f0fdf4" stroke="#22c55e"/><text x="656" y="266" class="m">Review name · Suggest clearer name</text>
<path d="M210,323 L238,323" class="ln" marker-end="url(#a)"/>
<rect x="240" y="298" width="340" height="50" rx="7" fill="#fff" stroke="#93c5fd"/><text x="254" y="319" class="t">Summary</text><text x="254" y="338" class="l">div#summary</text>
<path d="M580,323 L638,323" class="ln" marker-end="url(#a)"/>
<rect x="640" y="298" width="400" height="50" rx="7" fill="#f0fdf4" stroke="#22c55e"/><text x="656" y="328" class="m">Review summary · Rewrite summary</text>
<path d="M210,385 L238,385" class="ln" marker-end="url(#a)"/>
<rect x="240" y="360" width="340" height="50" rx="7" fill="#fff" stroke="#93c5fd"/><text x="254" y="381" class="t">Preconditions</text><text x="254" y="400" class="l">div.preconditionsCONTAINER</text>
<path d="M580,385 L638,385" class="ln" marker-end="url(#a)"/>
<rect x="640" y="360" width="400" height="50" rx="7" fill="#f0fdf4" stroke="#22c55e"/><text x="656" y="390" class="m">Review · Find missing preconditions</text>
<path d="M210,447 L238,447" class="ln" marker-end="url(#a)"/>
<rect x="240" y="422" width="340" height="50" rx="7" fill="#fff" stroke="#93c5fd"/><text x="254" y="443" class="t">A step</text><text x="254" y="462" class="l">span#tcstep_&lt;id&gt; row</text>
<path d="M580,447 L638,447" class="ln" marker-end="url(#a)"/>
<rect x="640" y="422" width="400" height="50" rx="7" fill="#f0fdf4" stroke="#22c55e"/><text x="656" y="452" class="m">Review step · Rewrite · Split · Add expected result</text>
<path d="M210,509 L238,509" class="ln" marker-end="url(#a)"/>
<rect x="240" y="484" width="340" height="50" rx="7" fill="#fff" stroke="#93c5fd"/><text x="254" y="505" class="t">Anything else</text><text x="254" y="524" class="l">no rule matches</text>
<path d="M580,509 L638,509" class="ln" marker-end="url(#a)"/>
<rect x="640" y="484" width="400" height="50" rx="7" fill="#f8fafc" stroke="#94a3b8"/><text x="656" y="514" class="m">normal browser menu</text>
<text x="640" y="568" class="m">Each item opens the chat panel with the request filled in,</text><text x="640" y="588" class="m">e.g. "Review step 3 of TC-12".</text>
</svg>
