<svg xmlns="http://www.w3.org/2000/svg" width="1000" height="640" viewBox="0 0 1000 640"><defs><marker id="a" viewBox="0 0 10 10" refX="9" refY="5" markerWidth="8" markerHeight="8" orient="auto-start-reverse"><path d="M0,0 L10,5 L0,10 z" fill="#334155"/></marker></defs><style>text{font-family:DejaVu Sans,Arial,sans-serif;fill:#0f172a}.s{font-size:13px}.m{font-size:15px}.t{font-size:17px;font-weight:bold}.l{font-size:12px;fill:#475569}.ln{stroke:#334155;stroke-width:1.6;fill:none}.d{stroke-dasharray:6 4}</style><rect width="1000" height="640" fill="#ffffff"/>
<rect x="0" y="20" width="160" height="40" rx="6" fill="#eff6ff" stroke="#3b82f6"/><text x="80" y="45" class="m" text-anchor="middle">User</text><path d="M80,60 L80,620" stroke="#94a3b8" stroke-dasharray="4 4"/>
<rect x="190" y="20" width="160" height="40" rx="6" fill="#eff6ff" stroke="#3b82f6"/><text x="270" y="45" class="m" text-anchor="middle">TestLink page</text><path d="M270,60 L270,620" stroke="#94a3b8" stroke-dasharray="4 4"/>
<rect x="380" y="20" width="160" height="40" rx="6" fill="#eff6ff" stroke="#3b82f6"/><text x="460" y="45" class="m" text-anchor="middle">Chat panel</text><path d="M460,60 L460,620" stroke="#94a3b8" stroke-dasharray="4 4"/>
<rect x="580" y="20" width="160" height="40" rx="6" fill="#eff6ff" stroke="#3b82f6"/><text x="660" y="45" class="m" text-anchor="middle">Dify</text><path d="M660,60 L660,620" stroke="#94a3b8" stroke-dasharray="4 4"/>
<rect x="795" y="20" width="190" height="40" rx="6" fill="#eff6ff" stroke="#3b82f6"/><text x="890" y="45" class="m" text-anchor="middle">mcpo + testlink-mcp</text><path d="M890,60 L890,620" stroke="#94a3b8" stroke-dasharray="4 4"/>
<path d="M80,105 L268,105" class="ln" marker-end="url(#a)"/><text x="175" y="98" class="s" text-anchor="middle">click TC-12</text>
<path d="M270,145 L458,145" class="ln" marker-end="url(#a)"/><text x="365" y="138" class="s" text-anchor="middle">TC-12 is open</text>
<path d="M80,190 L268,190" class="ln" marker-end="url(#a)"/><text x="175" y="183" class="s" text-anchor="middle">right-click step 3 → Review</text>
<path d="M270,230 L458,230" class="ln" marker-end="url(#a)"/><text x="365" y="223" class="s" text-anchor="middle">prefill request</text>
<path d="M80,275 L458,275" class="ln" marker-end="url(#a)"/><text x="270" y="268" class="s" text-anchor="middle">send</text>
<path d="M460,315 L658,315" class="ln" marker-end="url(#a)"/><text x="560" y="308" class="s" text-anchor="middle">chat-messages, inputs: TC-12</text>
<path d="M660,355 L888,355" class="ln" marker-end="url(#a)"/><text x="775" y="348" class="s" text-anchor="middle">POST /read_test_case</text>
<path d="M890,395 L662,395" class="ln d" marker-end="url(#a)"/><text x="775" y="388" class="s" text-anchor="middle">test case data</text>
<path d="M660,435 L462,435" class="ln d" marker-end="url(#a)"/><text x="560" y="428" class="s" text-anchor="middle">streamed answer + proposal</text>
<path d="M80,480 L458,480" class="ln" marker-end="url(#a)"/><text x="270" y="473" class="s" text-anchor="middle">Apply</text>
<path d="M460,520 L658,520" class="ln" marker-end="url(#a)"/><text x="560" y="513" class="s" text-anchor="middle">workflows/run (proposal)</text>
<path d="M660,560 L888,560" class="ln" marker-end="url(#a)"/><text x="775" y="553" class="s" text-anchor="middle">POST /update_test_case</text>
<path d="M460,605 L272,605" class="ln d" marker-end="url(#a)"/><text x="365" y="598" class="s" text-anchor="middle">reload work frame</text>
</svg>
